<svg width="32" height="32" xmlns="http://www.w3.org/2000/svg">

 <g>
  <title>Layer 1</title>
  <path id="svg_4" d="m2.32159,9.94714l0.10132,-1.22467l1.32159,-1.71806l10.79295,-6.43172l1.23348,-0.30837l1.4978,0.30837l11.05727,6.51982l0.837,1.14537l0.35242,1.27753l0.08811,0.837l-2.37885,14.44934l-10,6.51982l-1.18943,0.26432l-1.10132,-0.26432l-11.89427,-7.22467l-0.61674,-1.36564" opacity="NaN" fill="#ffffff"/>
  <path id="svg_1" d="m28.057,6.53l-10.105,-5.998a3.8,3.8 0 0 0 -3.88,0l-10.107,5.998a4.03,4.03 0 0 0 -1.965,3.472l0,11.996a4.03,4.03 0 0 0 1.948,3.472l10.105,5.998a3.8,3.8 0 0 0 3.88,0l10.107,-5.998a4.03,4.03 0 0 0 1.948,-3.472l0,-11.996a4.03,4.03 0 0 0 -1.93,-3.472l-0.001,0zm-7.827,18.732l0,0.86a0.318,0.318 0 0 1 -0.148,0.265l-0.512,0.293c-0.08,0.042 -0.148,0 -0.148,-0.113l0,-0.847a1.66,1.66 0 0 1 -1.164,0.113c-0.062,-0.042 -0.086,-0.122 -0.056,-0.2l0.183,-0.78a0.322,0.322 0 0 1 0.102,-0.17a0.18,0.18 0 0 1 0.05,-0.035a0.11,0.11 0 0 1 0.08,0a1.41,1.41 0 0 0 1.059,-0.134a1.41,1.41 0 0 0 0.79,-1.21c0,-0.438 -0.24,-0.62 -0.82,-0.625c-0.734,0 -1.4,-0.14 -1.43,-1.224a3.137,3.137 0 0 1 1.186,-2.4l0,-0.872a0.34,0.34 0 0 1 0.148,-0.268l0.494,-0.314c0.08,-0.042 0.148,0 0.148,0.116l0,0.872a1.61,1.61 0 0 1 0.967,-0.116c0.07,0.04 0.098,0.128 0.064,0.2l-0.173,0.773a0.325,0.325 0 0 1 -0.138,0.195c-0.02,0.012 -0.05,0.008 -0.074,0a1.28,1.28 0 0 0 -0.931,0.152a1.17,1.17 0 0 0 -0.706,1.037c0,0.395 0.208,0.515 0.907,0.53c0.935,0 1.337,0.423 1.348,1.362a3.346,3.346 0 0 1 -1.228,2.53l0.002,0.01zm5.293,-1.45a0.201,0.201 0 0 1 -0.078,0.194l-2.545,1.552c-0.024,0.02 -0.06,0.023 -0.087,0.007s-0.04,-0.05 -0.033,-0.08l0,-0.66a0.184,0.184 0 0 1 0.116,-0.162l2.516,-1.507c0.024,-0.02 0.06,-0.023 0.087,-0.007s0.04,0.05 0.033,0.08l0,0.582l-0.009,0.001zm1.765,-14.752l-9.562,5.906c-1.193,0.706 -2.07,1.478 -2.07,2.914l0,11.778c0,0.86 0.353,1.4 0.882,1.58a3.14,3.14 0 0 1 -0.53,0.053a3.13,3.13 0 0 1 -1.595,-0.441l-10.105,-5.997a3.3,3.3 0 0 1 -1.602,-2.853l0,-11.998a3.304,3.304 0 0 1 1.602,-2.858l10.105,-5.998c0.98,-0.58 2.196,-0.58 3.176,0l10.105,5.998c0.833,0.504 1.4,1.35 1.552,2.3c-0.328,-0.713 -1.083,-0.9 -1.962,-0.395l0.003,0l0.001,0.011z" fill-rule="evenodd" fill="#1b1b1f"/>
  <path transform="translate(560.5,272)" id="svg_2" d="m29.55882,9.76471l-13.32353,-9.52941l-13.17647,7.47059l-0.64706,15.47059l0.35294,0.58824l0.64706,0.94118l11.70588,6.76471l0.88235,0.05882l2.17647,-0.76471l8.35294,-4.82353l1.70588,-1.58824l1.11765,-1.41176l0.20588,-13.17647z" opacity="NaN" stroke="#000" fill="#2c2cd3"/>
 </g>
</svg>