<svg width="24" height="24" xmlns="http://www.w3.org/2000/svg">

 <g>
  <title>Layer 1</title>
  <path id="svg_6" d="m6.19007,17.8488l-0.70411,-2.81641l1.2095,-3.49892l1.2527,-1.07991l0.34557,-0.99352l0.47516,-1.07991l0.30238,-1.98704l-0.12959,-2.20302l1.55507,-1.85745l0.99352,0.47516l2.85097,-0.12959l0.56155,0.99352l0.17279,1.72786l0.95032,3.80129l2.20302,2.28942l1.12311,2.76458l0.60475,1.64147l-0.34557,1.81425l-3.15335,3.88769l-2.67818,0.25918l-2.59179,0l-2.37581,-0.30238" opacity="NaN" fill="#ffffff"/>
  <path id="svg_1" d="m10.83,5.59c0.08,-0.03 0.19,-0.04 0.26,0c0.02,0.01 0.04,0.03 0.03,0.05l0,0.02l0.01,0c-0.02,0.06 -0.12,0.05 -0.17,0.07s-0.09,0.07 -0.14,0.07c-0.05,0 -0.13,-0.02 -0.14,-0.07c-0.01,-0.07 0.09,-0.14 0.15,-0.14zm1.02,0.14c-0.05,-0.02 -0.15,-0.01 -0.16,-0.07l0,-0.02c-0.01,-0.02 0.01,-0.04 0.02,-0.05a0.36,0.36 0 0 1 0.27,0c0.06,0 0.16,0.07 0.15,0.14c-0.01,0.05 -0.09,0.06 -0.14,0.06s-0.09,-0.04 -0.14,-0.06zm-1.76,1.45c0.3,0.2 0.69,0.47 1.18,0.47s1.07,-0.27 1.42,-0.47c0.19,-0.13 0.45,-0.33 0.65,-0.47c0.16,-0.13 0.15,-0.26 0.29,-0.26c0.13,0.01 0.03,0.13 -0.15,0.33c-0.19,0.13 -0.47,0.33 -0.7,0.47c-0.44,0.2 -0.96,0.53 -1.51,0.53c-0.54,0 -0.98,-0.27 -1.29,-0.47c-0.16,-0.13 -0.28,-0.26 -0.38,-0.33c-0.16,-0.13 -0.14,-0.33 -0.07,-0.33c0.11,0.01 0.13,0.13 0.2,0.2c0.1,0.06 0.22,0.2 0.36,0.33z" fill="#F9C105"/>
  <path id="svg_2" d="m12.13,5.73c-0.01,0.05 -0.09,0.06 -0.14,0.06s-0.09,-0.04 -0.14,-0.06c-0.05,-0.02 -0.15,-0.01 -0.16,-0.07l0,-0.02c-0.01,-0.02 0.01,-0.04 0.02,-0.05a0.36,0.36 0 0 1 0.27,0c0.06,0 0.16,0.07 0.15,0.14z"/>
  <path id="svg_3" d="m16.63,10.98l0,0.92l-0.55,0a10.203,10.203 0 0 1 1.06,2.91c0.15,-0.01 0.33,0.02 0.52,0.06c0.08,-0.21 0.13,-0.42 0.16,-0.63c0.19,-1.39 -0.69,-2.75 -1.19,-3.26zm0,0l0,0.92l-0.55,0a10.203,10.203 0 0 1 1.06,2.91c0.15,-0.01 0.33,0.02 0.52,0.06c0.08,-0.21 0.13,-0.42 0.16,-0.63c0.19,-1.39 -0.69,-2.75 -1.19,-3.26zm4.65,7.97l0,-0.09l-0.01,-0.01c-0.17,-0.2 -0.25,-0.53 -0.34,-0.92c-0.08,-0.4 -0.18,-0.79 -0.5,-1.05c-0.06,-0.05 -0.12,-0.06 -0.19,-0.13a0.438,0.438 0 0 0 -0.19,-0.07c0.28,-0.82 0.31,-1.65 0.17,-2.44c-0.07,-0.43 -0.19,-0.85 -0.35,-1.25c-0.54,-1.41 -1.48,-2.64 -2.2,-3.48c-0.37,-0.47 -0.75,-0.94 -1.04,-1.44c-0.33,-0.57 -0.55,-1.18 -0.54,-1.93c0.02,-1.39 0.11,-3.56 -0.87,-4.91c-0.52,-0.73 -1.37,-1.23 -2.71,-1.23c-0.16,0 -0.32,0.01 -0.49,0.02c-1.27,0.1 -2.06,0.56 -2.55,1.21c-1.15,1.52 -0.61,4.04 -0.65,5.09c-0.08,1.09 -0.3,1.95 -1.06,3.02c-0.31,0.36 -0.67,0.8 -1.02,1.3c-0.67,0.94 -1.34,2.06 -1.73,3.22c-0.25,0.75 -0.39,1.52 -0.32,2.26l0.03,0.23c-0.04,0.03 -0.08,0.07 -0.11,0.13c-0.27,0.27 -0.46,0.6 -0.67,0.84c-0.21,0.2 -0.49,0.27 -0.81,0.4c-0.32,0.14 -0.67,0.27 -0.87,0.68c-0.1,0.19 -0.14,0.4 -0.14,0.6s0.03,0.41 0.06,0.54c0.06,0.4 0.12,0.73 0.04,0.97c-0.25,0.68 -0.28,1.15 -0.11,1.49c0.18,0.33 0.54,0.46 0.95,0.6c0.82,0.2 1.93,0.13 2.81,0.6c0.93,0.46 1.89,0.67 2.64,0.47c0.54,-0.12 0.99,-0.47 1.23,-0.95c0.05,0 0.09,0 0.14,-0.01c0.56,-0.03 1.18,-0.26 2.14,-0.32c0.27,-0.02 0.56,0.01 0.88,0.05c0.51,0.08 1.09,0.19 1.73,0.15c0.02,0.13 0.06,0.19 0.11,0.33l0.01,0c0.39,0.78 1.12,1.13 1.9,1.07c0.78,-0.06 1.61,-0.53 2.29,-1.3c0.63,-0.77 1.7,-1.09 2.4,-1.51c0.35,-0.19 0.64,-0.46 0.66,-0.85c0.02,-0.4 -0.2,-0.81 -0.72,-1.38zm-7.78,-14.31c-0.04,-0.13 -0.1,-0.2 -0.18,-0.33c-0.09,-0.07 -0.17,-0.14 -0.27,-0.14l-0.02,0c-0.09,0 -0.18,0.03 -0.26,0.14c-0.1,0.09 -0.17,0.2 -0.21,0.33c-0.05,0.13 -0.08,0.26 -0.09,0.4l0,0.02c0,0.09 0.01,0.18 0.02,0.27c-0.2,-0.07 -0.44,-0.14 -0.61,-0.21c-0.01,-0.06 -0.02,-0.13 -0.02,-0.19l0,-0.02c-0.01,-0.27 0.04,-0.53 0.15,-0.77c0.08,-0.22 0.23,-0.41 0.43,-0.54c0.18,-0.13 0.39,-0.2 0.6,-0.2l0.02,0c0.21,0 0.4,0.07 0.59,0.2c0.19,0.14 0.33,0.33 0.44,0.54c0.11,0.25 0.16,0.45 0.17,0.72c0,-0.02 0.01,-0.04 0.01,-0.06l0,0.1c-0.01,0 -0.01,-0.01 -0.01,-0.02c0,0.23 -0.06,0.47 -0.15,0.69c-0.05,0.12 -0.12,0.24 -0.22,0.33c-0.03,-0.02 -0.06,-0.03 -0.09,-0.04c-0.1,-0.05 -0.2,-0.07 -0.29,-0.13a0.808,0.808 0 0 0 -0.22,-0.07c0.05,-0.06 0.15,-0.13 0.19,-0.2c0.05,-0.13 0.08,-0.26 0.09,-0.4l0,-0.02c0,-0.13 -0.02,-0.27 -0.07,-0.4zm-4.16,-0.44c0.05,-0.2 0.15,-0.38 0.29,-0.54c0.13,-0.13 0.26,-0.2 0.42,-0.2l0.03,0a0.7,0.7 0 0 1 0.41,0.14c0.15,0.13 0.27,0.29 0.35,0.46c0.09,0.2 0.14,0.4 0.15,0.67c0.01,0.07 0.01,0.12 0.01,0.17c0,0.04 0,0.07 -0.01,0.1l0,0.08a0.31,0.31 0 0 1 -0.08,0.02c-0.16,0.06 -0.28,0.14 -0.4,0.2c0.01,-0.08 0.01,-0.17 0,-0.26l0,-0.02c-0.01,-0.13 -0.04,-0.2 -0.08,-0.33a0.65,0.65 0 0 0 -0.17,-0.27a0.256,0.256 0 0 0 -0.19,-0.06l-0.02,0c-0.07,0 -0.13,0.04 -0.18,0.13c-0.07,0.08 -0.11,0.17 -0.13,0.27c-0.02,0.11 -0.03,0.22 -0.02,0.33l0,0.02c0.01,0.13 0.04,0.2 0.08,0.33c0.05,0.13 0.1,0.2 0.17,0.27c0.01,0.01 0.02,0.02 0.03,0.02c-0.07,0.06 -0.11,0.07 -0.17,0.14a0.37,0.37 0 0 1 -0.14,0.07c-0.1,-0.13 -0.19,-0.26 -0.27,-0.41c-0.1,-0.21 -0.15,-0.43 -0.16,-0.66c-0.02,-0.23 0.01,-0.46 0.08,-0.67zm0.11,2.11c0.22,-0.14 0.38,-0.28 0.49,-0.34c0.1,-0.07 0.14,-0.1 0.17,-0.13l0.01,0c0.17,-0.21 0.44,-0.47 0.84,-0.61c0.14,-0.03 0.3,-0.06 0.48,-0.06c0.33,0 0.74,0.06 1.22,0.4c0.3,0.2 0.53,0.27 1.07,0.47c0.26,0.13 0.41,0.26 0.49,0.4l0,-0.14c0.07,0.15 0.07,0.32 0.01,0.47c-0.12,0.32 -0.52,0.65 -1.07,0.85c-0.28,0.13 -0.51,0.33 -0.79,0.46c-0.28,0.14 -0.59,0.3 -1.02,0.27a0.97,0.97 0 0 1 -0.45,-0.07c-0.12,-0.06 -0.23,-0.12 -0.33,-0.19c-0.2,-0.14 -0.37,-0.34 -0.62,-0.47c-0.41,-0.25 -0.63,-0.52 -0.7,-0.71c-0.07,-0.27 0,-0.47 0.2,-0.6zm0.16,15.66c-0.06,0.74 -0.49,1.14 -1.14,1.29c-0.66,0.13 -1.54,0 -2.43,-0.46c-0.97,-0.54 -2.14,-0.47 -2.88,-0.61c-0.38,-0.06 -0.62,-0.2 -0.74,-0.4c-0.11,-0.2 -0.11,-0.6 0.13,-1.23c0.12,-0.34 0.03,-0.76 -0.03,-1.12c-0.05,-0.4 -0.08,-0.71 0.05,-0.94c0.16,-0.34 0.4,-0.4 0.69,-0.54c0.3,-0.13 0.65,-0.2 0.93,-0.46l0,-0.01c0.26,-0.27 0.45,-0.6 0.68,-0.84c0.19,-0.2 0.38,-0.33 0.67,-0.33l0.01,0c0.05,0 0.1,0 0.16,0.01c0.38,0.06 0.71,0.34 1.03,0.75l0.92,1.67l0.01,0c0.24,0.53 0.76,1.07 1.2,1.64c0.44,0.6 0.78,1.13 0.74,1.57l0,0.01zm3.29,-0.64c-0.99,0.23 -2.04,0.16 -3.02,-0.38c-0.12,-0.06 -0.24,-0.13 -0.35,-0.21c-0.11,-0.19 -0.25,-0.37 -0.41,-0.53a1.26,1.26 0 0 0 -0.28,-0.33c0.19,0 0.35,-0.03 0.48,-0.07c0.14,-0.07 0.26,-0.19 0.31,-0.33c0.11,-0.27 0,-0.7 -0.35,-1.17c-0.35,-0.46 -0.94,-0.99 -1.8,-1.52c-0.33,-0.21 -0.58,-0.43 -0.77,-0.67c-0.19,-0.23 -0.32,-0.47 -0.4,-0.72c-0.16,-0.54 -0.14,-1.09 -0.01,-1.65c0.15,-0.66 0.45,-1.3 0.74,-1.85c0.2,-0.35 0.39,-0.66 0.55,-0.91c0.1,-0.07 0.03,0.12 -0.39,0.91l-0.03,0.06c-0.4,0.75 -1.15,2.5 -0.12,3.86c0.04,-0.99 0.26,-1.97 0.65,-2.88c0.13,-0.3 0.3,-0.65 0.48,-1.04c0.59,-1.25 1.31,-2.87 1.38,-4.23c0.05,0.04 0.22,0.14 0.29,0.2c0.22,0.14 0.39,0.34 0.6,0.47c0.21,0.2 0.48,0.33 0.89,0.33c0.04,0.01 0.07,0.01 0.11,0.01c0.41,0 0.74,-0.13 1.01,-0.27c0.29,-0.13 0.52,-0.33 0.74,-0.4l0.01,0c0.47,-0.13 0.84,-0.4 1.06,-0.7c0.36,1.42 1.21,3.48 1.75,4.48a10.203,10.203 0 0 1 1.12,3.02c0.15,-0.01 0.33,0.02 0.52,0.06c0.08,-0.21 0.13,-0.42 0.16,-0.63c0.19,-1.39 -0.69,-2.75 -1.19,-3.26c-0.03,-0.02 -0.06,-0.05 -0.08,-0.07c-0.22,-0.2 -0.23,-0.34 -0.12,-0.34c0.07,0.06 0.13,0.12 0.2,0.19c0.56,0.58 1.21,1.51 1.46,2.57c0.08,0.29 0.12,0.6 0.12,0.91c0,0.25 -0.03,0.51 -0.09,0.76c0.06,0.03 0.13,0.06 0.2,0.07c1.05,0.53 1.43,0.93 1.25,1.53l0,-0.04l-0.2,0c0.15,-0.47 -0.18,-0.83 -1.08,-1.22c-0.92,-0.4 -1.66,-0.34 -1.79,0.46c-0.01,0.04 -0.01,0.07 -0.02,0.14c-0.07,0.02 -0.14,0.05 -0.21,0.06c-0.43,0.27 -0.67,0.67 -0.8,1.19c-0.13,0.53 -0.17,1.15 -0.21,1.87c-0.02,0.33 -0.17,0.84 -0.32,1.35c-0.61,0.43 -1.3,0.76 -2.04,0.92zm8.3,-0.51c-0.63,0.4 -1.76,0.71 -2.48,1.57c-0.63,0.74 -1.39,1.14 -2.06,1.19c-0.67,0.05 -1.25,-0.2 -1.59,-0.9l-0.01,0c-0.21,-0.4 -0.12,-1.03 0.06,-1.69c0.18,-0.67 0.43,-1.35 0.47,-1.9c0.03,-0.71 0.07,-1.33 0.19,-1.81c0.13,-0.47 0.32,-0.8 0.65,-0.99l0.05,-0.02c0.03,0.6 0.34,1.24 0.89,1.38c0.59,0.13 1.45,-0.34 1.81,-0.77l0.21,-0.01c0.32,-0.01 0.59,0.01 0.86,0.27c0.21,0.2 0.31,0.53 0.4,0.88c0.09,0.4 0.16,0.78 0.41,1.06c0.5,0.53 0.66,0.91 0.65,1.14c-0.02,0.27 -0.19,0.4 -0.51,0.6zm-4.57,-9.84l0,0.92l-0.55,0a10.203,10.203 0 0 1 1.06,2.91c0.15,-0.01 0.33,0.02 0.52,0.06c0.08,-0.21 0.13,-0.42 0.16,-0.63c0.19,-1.39 -0.69,-2.75 -1.19,-3.26z"/>
  <path id="svg_4" d="m14.22,6.3l0,0.14c-0.08,-0.14 -0.23,-0.27 -0.49,-0.4c-0.54,-0.2 -0.77,-0.27 -1.07,-0.47c-0.48,-0.34 -0.89,-0.4 -1.22,-0.4c-0.18,0 -0.34,0.03 -0.48,0.06c-0.4,0.14 -0.67,0.4 -0.84,0.61l-0.01,0c-0.03,0.03 -0.07,0.06 -0.17,0.13c-0.11,0.06 -0.27,0.2 -0.49,0.34c-0.2,0.13 -0.27,0.33 -0.2,0.6c0.07,0.19 0.29,0.46 0.7,0.71c0.25,0.13 0.42,0.33 0.62,0.47c0.1,0.07 0.21,0.13 0.33,0.19c0.14,0.06 0.29,0.08 0.45,0.07c0.43,0.03 0.74,-0.13 1.02,-0.27c0.28,-0.13 0.51,-0.33 0.79,-0.46c0.55,-0.2 0.95,-0.53 1.07,-0.85c0.06,-0.15 0.06,-0.32 -0.01,-0.47zm-2.53,-0.66c-0.01,-0.02 0.01,-0.04 0.02,-0.05a0.36,0.36 0 0 1 0.27,0c0.06,0 0.16,0.07 0.15,0.14c-0.01,0.05 -0.09,0.06 -0.14,0.06s-0.09,-0.04 -0.14,-0.06c-0.05,-0.02 -0.15,-0.01 -0.16,-0.07l0,-0.02zm-0.86,-0.05c0.08,-0.03 0.19,-0.04 0.26,0c0.02,0.01 0.04,0.03 0.03,0.05l0,0.02l0.01,0c-0.02,0.06 -0.12,0.05 -0.17,0.07s-0.09,0.07 -0.14,0.07c-0.05,0 -0.13,-0.02 -0.14,-0.07c-0.01,-0.07 0.09,-0.14 0.15,-0.14zm2.65,1.19c-0.19,0.13 -0.47,0.33 -0.7,0.47c-0.44,0.2 -0.96,0.53 -1.51,0.53c-0.54,0 -0.98,-0.27 -1.29,-0.47c-0.16,-0.13 -0.28,-0.26 -0.38,-0.33c-0.16,-0.13 -0.14,-0.33 -0.07,-0.33c0.11,0.01 0.13,0.13 0.2,0.2c0.1,0.06 0.22,0.2 0.36,0.33c0.3,0.2 0.69,0.47 1.18,0.47s1.07,-0.27 1.42,-0.47c0.19,-0.13 0.45,-0.33 0.65,-0.47c0.16,-0.13 0.15,-0.26 0.29,-0.26c0.13,0.01 0.03,0.13 -0.15,0.33zm8.23,13.44c-0.02,0.27 -0.19,0.4 -0.51,0.6c-0.63,0.4 -1.76,0.71 -2.48,1.57c-0.63,0.74 -1.39,1.14 -2.06,1.19c-0.67,0.05 -1.25,-0.2 -1.59,-0.9l-0.01,0c-0.21,-0.4 -0.12,-1.03 0.06,-1.69c0.18,-0.67 0.43,-1.35 0.47,-1.9c0.03,-0.71 0.07,-1.33 0.19,-1.81c0.13,-0.47 0.32,-0.8 0.65,-0.99l0.05,-0.02c0.03,0.6 0.34,1.24 0.89,1.38c0.59,0.13 1.45,-0.34 1.81,-0.77l0.21,-0.01c0.32,-0.01 0.59,0.01 0.86,0.27c0.21,0.2 0.31,0.53 0.4,0.88c0.09,0.4 0.16,0.78 0.41,1.06c0.5,0.53 0.66,0.91 0.65,1.14zm-12.1,1.74l0,0.01c-0.06,0.74 -0.49,1.14 -1.14,1.29c-0.66,0.13 -1.54,0 -2.43,-0.46c-0.97,-0.54 -2.14,-0.47 -2.88,-0.61c-0.38,-0.06 -0.62,-0.2 -0.74,-0.4c-0.11,-0.2 -0.11,-0.6 0.13,-1.23c0.12,-0.34 0.03,-0.76 -0.03,-1.12c-0.05,-0.4 -0.08,-0.71 0.05,-0.94c0.16,-0.34 0.4,-0.4 0.69,-0.54c0.3,-0.13 0.65,-0.2 0.93,-0.46l0,-0.01c0.26,-0.27 0.45,-0.6 0.68,-0.84c0.19,-0.2 0.38,-0.33 0.67,-0.33l0.01,0c0.05,0 0.1,0 0.16,0.01c0.38,0.06 0.71,0.34 1.03,0.75l0.92,1.67l0.01,0c0.24,0.53 0.76,1.07 1.2,1.64c0.44,0.6 0.78,1.13 0.74,1.57z" fill="#F9C105"/>
  <path id="svg_5" d="m11.13,5.66c-0.02,0.06 -0.12,0.05 -0.17,0.07s-0.09,0.07 -0.14,0.07c-0.05,0 -0.13,-0.02 -0.14,-0.07c-0.01,-0.07 0.09,-0.14 0.15,-0.14c0.08,-0.03 0.19,-0.04 0.26,0c0.02,0.01 0.04,0.03 0.03,0.05l0,0.02l0.01,0zm2.35,1.12c-0.19,0.13 -0.47,0.33 -0.7,0.47c-0.44,0.2 -0.96,0.53 -1.51,0.53c-0.54,0 -0.98,-0.27 -1.29,-0.47c-0.16,-0.13 -0.28,-0.26 -0.38,-0.33c-0.16,-0.13 -0.14,-0.33 -0.07,-0.33c0.11,0.01 0.13,0.13 0.2,0.2c0.1,0.06 0.22,0.2 0.36,0.33c0.3,0.2 0.69,0.47 1.18,0.47s1.07,-0.27 1.42,-0.47c0.19,-0.13 0.45,-0.33 0.65,-0.47c0.16,-0.13 0.15,-0.26 0.29,-0.26c0.13,0.01 0.03,0.13 -0.15,0.33z"/>
 </g>
</svg>